#define icon_10_width 10
#define icon_10_height 10
static unsigned char icon_10_bits[] = {
   0x30, 0x00, 0x30, 0x00, 0x30, 0x00, 0x30, 0x00, 0x33, 0x03, 0x33, 0x03,
   0x30, 0x00, 0x18, 0x00, 0x0c, 0x00, 0x00, 0x00 };